<svg width="64" height="64" viewBox="0 0 64 64" fill="none" xmlns="http://www.w3.org/2000/svg">
<path d="M51.4296 37.08H53.5908V39.24H51.4296V37.08ZM51.4296 29.16H53.5908V27H51.4296V29.16ZM59.0137 54H47.0073V20H55.0115C56.6625 20 58.0131 21.35 58.0131 23V52H59.0137C60.3293 52.0284 60.3283 53.9699 59.0137 54ZM55.5919 36.08C55.5919 35.53 55.1416 35.08 54.5913 35.08H50.4291C49.8788 35.08 49.4286 35.53 49.4286 36.08V40.24C49.4286 40.79 49.8788 41.24 50.4291 41.24H54.5913C55.1416 41.24 55.5919 40.79 55.5919 40.24V36.08ZM55.5919 26C55.5919 25.45 55.1416 25 54.5913 25H50.4291C49.8788 25 49.4286 25.45 49.4286 26V30.16C49.4286 30.71 49.8788 31.16 50.4291 31.16H54.5913C55.1416 31.16 55.5919 30.71 55.5919 30.16V26ZM12.5689 27H10.4077V29.16H12.5689V27ZM8.98695 20H16.9912V54C16.9912 54 4.98481 54 4.98486 54C3.66848 53.978 3.67496 52.0189 4.98481 52H5.98534V23C5.98534 21.35 7.33605 20 8.98695 20ZM14.57 36.08C14.57 35.53 14.1197 35.08 13.5694 35.08H9.40716C8.85688 35.08 8.40663 35.53 8.40663 36.08V40.24C8.40663 40.79 8.85688 41.24 9.40716 41.24H13.5694C14.1197 41.24 14.57 40.79 14.57 40.24V36.08ZM9.40716 25C8.85688 25 8.40663 25.45 8.40663 26V30.16C8.40663 30.71 8.85688 31.16 9.40716 31.16H13.5694C14.1197 31.16 14.57 30.71 14.57 30.16V26C14.57 25.45 14.1197 25 13.5694 25H9.40716ZM10.4077 39.24H12.5689V37.08H10.4077V39.24ZM26.8365 41.42V42.42H30.9987V40.42H27.8371C27.2867 40.42 26.8365 40.87 26.8365 41.42ZM26.8365 54H30.9987V44.42H26.8365V54ZM36.1614 40.42H32.9998V42.42H37.162V41.42C37.162 40.87 36.7118 40.42 36.1614 40.42ZM32.9998 54H37.162V44.42H32.9998V54ZM25.876 19.16H28.0371V17H25.876V19.16ZM25.876 28.32H28.0371V26.16H25.876V28.32ZM35.9614 19.16H38.1225V17H35.9614V19.16ZM45.0062 13V54H39.1631V41.42C39.1631 39.77 37.8124 38.42 36.1615 38.42H27.8371C26.1862 38.42 24.8355 39.77 24.8355 41.42V54H18.9923V13C18.9923 11.35 20.343 10 21.9939 10H42.0046C43.6555 10 45.0062 11.35 45.0062 13ZM30.0382 25.16C30.0382 24.61 29.588 24.16 29.0377 24.16H24.8755C24.3252 24.16 23.8749 24.61 23.8749 25.16V29.32C23.8749 29.87 24.3252 30.32 24.8755 30.32H29.0377C29.588 30.32 30.0382 29.87 30.0382 29.32V25.16ZM30.0382 16C30.0382 15.45 29.588 15 29.0377 15H24.8755C24.3252 15 23.8749 15.45 23.8749 16V20.16C23.8749 20.71 24.3252 21.16 24.8755 21.16H29.0377C29.588 21.16 30.0382 20.71 30.0382 20.16V16ZM40.1236 25.16C40.1236 24.61 39.6733 24.16 39.1231 24.16H34.9609C34.4105 24.16 33.9603 24.61 33.9603 25.16V29.32C33.9603 29.87 34.4105 30.32 34.9609 30.32H39.1231C39.6733 30.32 40.1236 29.87 40.1236 29.32V25.16ZM40.1236 16C40.1236 15.45 39.6733 15 39.1231 15H34.9609C34.4105 15 33.9603 15.45 33.9603 16V20.16C33.9603 20.71 34.4105 21.16 34.9609 21.16H39.1231C39.6733 21.16 40.1236 20.71 40.1236 20.16V16ZM35.9614 28.32H38.1225V26.16H35.9614V28.32Z" fill="url(#paint0_linear_77_408)"/>
<defs>
<linearGradient id="paint0_linear_77_408" x1="4" y1="10" x2="61.1377" y2="11.5306" gradientUnits="userSpaceOnUse">
<stop stop-color="#1F9CFF"/>
<stop offset="1" stop-color="#144EE3"/>
</linearGradient>
</defs>
</svg>
