<svg width="64" height="64" viewBox="0 0 64 64" fill="none" xmlns="http://www.w3.org/2000/svg">
<path d="M59.3071 13.6835V37.212C59.3029 38.5098 58.7848 39.7531 57.8662 40.6699C56.9476 41.5866 55.7032 42.1022 54.4054 42.1037H9.58923C8.29142 42.1022 7.04705 41.5866 6.12842 40.6699C5.20979 39.7531 4.69169 38.5098 4.6875 37.212V13.6835C4.68999 12.3851 5.20754 11.1408 6.12654 10.2237C7.04554 9.30657 8.29089 8.79155 9.58923 8.7917H17.7121C17.7128 9.81729 17.7113 11.7695 17.7121 12.7931H9.58923C9.47162 12.7924 9.35502 12.8148 9.2461 12.8592C9.13717 12.9035 9.03806 12.9689 8.95444 13.0516C8.87082 13.1343 8.80432 13.2327 8.75877 13.3411C8.71321 13.4495 8.68948 13.5659 8.68894 13.6835V37.212C8.68948 37.3296 8.71321 37.4459 8.75877 37.5544C8.80433 37.6628 8.87082 37.7612 8.95444 37.8439C9.03807 37.9266 9.13718 37.9919 9.2461 38.0363C9.35503 38.0806 9.47163 38.1031 9.58923 38.1023H54.4054C54.523 38.1031 54.6396 38.0806 54.7485 38.0363C54.8574 37.9919 54.9566 37.9266 55.0402 37.8439C55.1238 37.7612 55.1903 37.6628 55.2359 37.5544C55.2814 37.4459 55.3051 37.3296 55.3057 37.212V13.6835C55.3051 13.5659 55.2814 13.4495 55.2359 13.3411C55.1903 13.2327 55.1238 13.1343 55.0402 13.0516C54.9566 12.9689 54.8574 12.9035 54.7485 12.8592C54.6396 12.8148 54.523 12.7924 54.4054 12.7931H46.2825C46.2898 11.7629 46.2724 9.82686 46.2825 8.79169H54.4054C55.7037 8.79153 56.9491 9.30655 57.8681 10.2237C58.7871 11.1408 59.3046 12.3851 59.3071 13.6835ZM40.4504 52.5175C38.4222 50.1935 37.3499 47.1874 37.4493 44.1045H27.0655C27.0954 45.6666 26.8166 47.2192 26.2449 48.6732C25.6732 50.1272 24.82 51.454 23.7342 52.5775C29.1231 54.6191 35.0763 54.5978 40.4504 52.5175ZM40.0602 48.0159C40.6463 49.5658 41.5968 50.952 42.8314 52.0572C42.971 52.1615 43.0812 52.3002 43.1513 52.4598C43.2214 52.6193 43.2489 52.7943 43.2313 52.9676C43.2098 53.1391 43.1454 53.3023 43.044 53.4422C42.9425 53.5821 42.8074 53.6942 42.6512 53.7679C39.3015 55.3152 35.6571 56.1205 31.9673 56.1287C28.3038 56.1633 24.6829 55.3412 21.3936 53.7278C21.2477 53.6461 21.1246 53.5291 21.0355 53.3876C20.9463 53.246 20.8941 53.0845 20.8834 52.9175C20.8749 52.751 20.9069 52.5848 20.9765 52.4333C21.0462 52.2817 21.1515 52.1493 21.2835 52.0472C22.7011 51.0109 23.7886 49.5865 24.4146 47.9458C17.8823 48.9261 14.0109 51.0669 14.0109 53.7079C14.0835 62.0974 49.9115 62.0974 49.9838 53.7078C49.9838 50.1266 43.4314 48.576 40.0602 48.0159ZM19.7129 30.1294C19.7129 30.1294 19.7158 6.27493 19.7129 5.00039C19.7136 4.73531 19.8193 4.48131 20.0067 4.29387C20.1941 4.10643 20.4481 4.00078 20.7132 4H43.2814C43.5465 4.00078 43.8005 4.10643 43.9879 4.29386C44.1753 4.4813 44.281 4.73529 44.2818 5.00036C44.2818 5.00036 44.2826 25.9973 44.2818 30.1294C44.2822 30.2609 44.2567 30.3911 44.2065 30.5127C44.1564 30.6343 44.0828 30.7448 43.9898 30.8377C43.8968 30.9307 43.7863 31.0044 43.6648 31.0545C43.5432 31.1046 43.4129 31.1302 43.2814 31.1297H20.7132C20.5817 31.1302 20.4514 31.1046 20.3299 31.0545C20.2083 31.0044 20.0978 30.9307 20.0049 30.8377C19.9119 30.7448 19.8382 30.6343 19.7881 30.5127C19.738 30.3912 19.7124 30.2609 19.7129 30.1294ZM23.7744 24.2773C23.7775 25.3375 24.2001 26.3535 24.9498 27.1033C25.6995 27.853 26.7155 28.2756 27.7758 28.2787H36.2188C37.2791 28.2756 38.2951 27.853 39.0448 27.1033C39.7946 26.3535 40.2172 25.3375 40.2203 24.2773V17.6449C40.2201 16.8397 39.9764 16.0534 39.5211 15.3892C39.0658 14.725 38.4203 14.2141 37.6693 13.9235V12.5231C37.3983 5.02959 26.5951 5.03346 26.3253 12.523V13.9235C25.5743 14.2141 24.9288 14.725 24.4736 15.3892C24.0183 16.0534 23.7746 16.8397 23.7744 17.6449L23.7744 24.2773ZM25.7751 24.2773V17.6449C25.7766 17.1148 25.9879 16.6068 26.3628 16.2319C26.7377 15.857 27.2457 15.6457 27.7758 15.6442H36.2188C36.749 15.6457 37.257 15.857 37.6318 16.2319C38.0067 16.6068 38.218 17.1148 38.2195 17.6449V24.2773C38.218 24.8074 38.0067 25.3154 37.6318 25.6903C37.257 26.0652 36.749 26.2765 36.2188 26.278H27.7758C27.2456 26.2765 26.7377 26.0652 26.3628 25.6903C25.9879 25.3154 25.7766 24.8074 25.7751 24.2773ZM30.997 20.2558V22.6666C31.0008 22.9294 31.108 23.18 31.2951 23.3645C31.4823 23.5489 31.7345 23.6523 31.9973 23.6523C32.2601 23.6523 32.5123 23.5489 32.6995 23.3645C32.8867 23.18 32.9938 22.9294 32.9977 22.6666V20.2558C33.1355 20.2858 33.278 20.2868 33.4162 20.2585C33.5544 20.2302 33.6852 20.1734 33.8001 20.0917C33.915 20.0099 34.0116 19.9051 34.0836 19.7838C34.1557 19.6625 34.2015 19.5275 34.2183 19.3875C34.2352 19.2475 34.2225 19.1055 34.1812 18.9706C34.1399 18.8357 34.0709 18.711 33.9786 18.6044C33.8863 18.4977 33.7727 18.4116 33.6451 18.3514C33.5175 18.2913 33.3788 18.2585 33.2378 18.2551H30.7569C30.6159 18.2585 30.4772 18.2914 30.3497 18.3516C30.2222 18.4117 30.1086 18.4979 30.0164 18.6045C29.9241 18.7111 29.8551 18.8359 29.8138 18.9707C29.7726 19.1055 29.7599 19.2475 29.7767 19.3875C29.7935 19.5275 29.8394 19.6624 29.9114 19.7837C29.9834 19.9049 30.0799 20.0098 30.1948 20.0915C30.3097 20.1733 30.4404 20.2301 30.5785 20.2584C30.7167 20.2867 30.8592 20.2858 30.997 20.2558ZM35.6686 12.523C35.6573 11.5567 35.2656 10.6339 34.5783 9.95457C33.891 9.27528 32.9636 8.89432 31.9973 8.89433C31.0309 8.89435 30.1036 9.27532 29.4163 9.95463C28.729 10.6339 28.3373 11.5568 28.326 12.5231V13.6435H35.6686V12.523ZM17.7121 14.6838H10.5896V36.2116H53.405V14.6838H46.2825V30.1294C46.2818 30.9251 45.9655 31.6881 45.4028 32.2508C44.8401 32.8134 44.0771 33.1298 43.2814 33.1305H20.7132C19.9175 33.1298 19.1545 32.8134 18.5918 32.2508C18.0292 31.6881 17.7128 30.9251 17.7121 30.1294V14.6838Z" fill="url(#paint0_linear_148_1470)"/>
<defs>
<linearGradient id="paint0_linear_148_1470" x1="4.6875" y1="4" x2="60.4332" y2="5.14439" gradientUnits="userSpaceOnUse">
<stop stop-color="#1F9CFF"/>
<stop offset="1" stop-color="#144EE3"/>
</linearGradient>
</defs>
</svg>
