<svg width="64" height="64" viewBox="0 0 64 64" fill="none" xmlns="http://www.w3.org/2000/svg">
<path d="M58.9563 34.9464L57.3163 31.7664C56.9615 31.077 56.7502 30.3227 56.6952 29.5492C56.6402 28.7758 56.7426 27.9992 56.9963 27.2664L57.8863 24.7464C58.2279 23.7755 58.3712 22.7459 58.3076 21.7186C58.244 20.6913 57.9748 19.6872 57.516 18.7658C57.0572 17.8444 56.4181 17.0246 55.6366 16.3548C54.855 15.6849 53.947 15.1788 52.9663 14.8664C50.6494 14.1284 47.7339 13.5616 46.6364 11.0963L45.1163 8.15644C44.1782 6.35722 42.5692 4.99994 40.6376 4.37854C38.706 3.75714 36.6074 3.92165 34.7963 4.83644C32.5893 5.93044 29.8455 7.82295 27.2863 6.80632L24.3563 5.87644C22.4109 5.26305 20.3017 5.44465 18.4898 6.38154C16.6778 7.31842 15.3104 8.93443 14.6863 10.8764L13.5363 14.4764C13.3148 15.19 12.953 15.8521 12.4722 16.4239C11.9914 16.9957 11.4012 17.4658 10.7363 17.8064L8.33628 19.0464C6.52581 19.9836 5.16134 21.6011 4.54259 23.5436C3.92384 25.4861 4.10141 27.5948 5.03628 29.4064L6.59628 32.4264C7.91206 34.6734 6.80348 37.3184 6.07618 39.5564C5.76882 40.5184 5.65411 41.5314 5.73861 42.5377C5.8231 43.544 6.10515 44.5237 6.56862 45.4209C7.03208 46.3181 7.66787 47.1151 8.43962 47.7664C9.21137 48.4177 10.1039 48.9104 11.0663 49.2164C13.3011 49.8773 15.8044 50.5149 16.8862 52.8166L18.4463 55.8364C19.0951 57.0905 20.0764 58.142 21.2829 58.8757C22.4893 59.6095 23.8743 59.9972 25.2863 59.9964C27.4408 60.1922 30.1769 58.3668 32.0563 57.4564C34.3785 56.0558 37.3444 57.4082 39.6563 58.1266C41.599 58.744 43.7074 58.5653 45.5185 57.6297C47.3296 56.6941 48.6955 55.0781 49.3163 53.1364C50.0798 50.7831 50.6313 47.7341 53.1464 46.6065L55.6563 45.3164C57.4677 44.3775 58.8325 42.7582 59.4512 40.814C60.0699 38.8698 59.8919 36.7595 58.9563 34.9464ZM51.0063 31.9964C50.9998 37.0362 48.9949 41.8678 45.4313 45.4314C41.8676 48.9951 37.0361 51 31.9963 51.0064C6.77746 49.9591 6.78481 14.0299 31.9964 12.9864C37.0362 12.9929 41.8677 14.9978 45.4313 18.5615C48.995 22.1252 50.9998 26.9567 51.0063 31.9964ZM31.9963 14.9864C27.4864 14.9913 23.1627 16.785 19.9738 19.9739C16.7849 23.1629 14.9912 27.4866 14.9863 31.9964C15.9197 54.5627 48.0763 54.5561 49.0063 31.9963C49.0014 27.4865 47.2077 23.1628 44.0187 19.9739C40.8298 16.785 36.5061 14.9913 31.9963 14.9864ZM42.7863 29.0364L31.7063 39.8864C31.0271 40.5456 30.1178 40.9143 29.1713 40.9143C28.2248 40.9143 27.3155 40.5456 26.6363 39.8864L21.1263 34.4764C20.8174 34.1765 20.5723 33.8173 20.4056 33.4204C20.239 33.0234 20.1541 32.5969 20.1563 32.1664C20.1644 31.5306 20.3588 30.9111 20.7153 30.3845C21.0718 29.858 21.5749 29.4475 22.1622 29.2038C22.7496 28.9601 23.3955 28.894 24.0201 29.0136C24.6446 29.1332 25.2204 29.4332 25.6763 29.8766L28.9963 33.1864L37.8663 24.1164C41.1841 20.9034 46.0381 25.7098 42.7863 29.0364ZM41.3963 27.6164L30.3063 38.4564C30.0025 38.7522 29.5953 38.9177 29.1713 38.9177C28.7473 38.9177 28.3401 38.7522 28.0363 38.4564L22.5263 33.0464C22.4085 32.9323 22.315 32.7955 22.2514 32.6442C22.1878 32.493 22.1554 32.3305 22.1563 32.1664C22.159 31.9232 22.2329 31.6861 22.3689 31.4844C22.5049 31.2827 22.697 31.1253 22.9215 31.0317C23.146 30.9381 23.3931 30.9123 23.6321 30.9576C23.8711 31.0028 24.0916 31.1172 24.2663 31.2864L28.2963 35.3164C28.3874 35.4094 28.4964 35.483 28.6167 35.5329C28.737 35.5827 28.8661 35.6077 28.9963 35.6064C29.1313 35.6154 29.2666 35.593 29.3915 35.541C29.5164 35.4889 29.6276 35.4086 29.7163 35.3064L39.2963 25.5164C39.4346 25.376 39.5997 25.2648 39.7818 25.1892C39.9638 25.1136 40.1592 25.0753 40.3563 25.0764C40.6486 25.0809 40.9331 25.1711 41.1746 25.3358C41.4161 25.5006 41.6039 25.7326 41.7147 26.0032C41.8254 26.2737 41.8543 26.5708 41.7977 26.8576C41.7411 27.1444 41.6015 27.4083 41.3963 27.6164Z" fill="url(#paint0_linear_77_441)"/>
<defs>
<linearGradient id="paint0_linear_77_441" x1="4.17969" y1="4.00781" x2="60.96" y2="5.19503" gradientUnits="userSpaceOnUse">
<stop stop-color="#1F9CFF"/>
<stop offset="1" stop-color="#144EE3"/>
</linearGradient>
</defs>
</svg>
