<svg width="64" height="64" viewBox="0 0 64 64" fill="none" xmlns="http://www.w3.org/2000/svg">
<path d="M59 26.78H57.29C56.2509 26.7796 55.2353 26.4711 54.3715 25.8934C53.5078 25.3158 52.8348 24.4949 52.4377 23.5347C52.0405 22.5745 51.9371 21.5181 52.1404 20.4991C52.3438 19.4801 52.8447 18.5442 53.58 17.81L54.79 16.6C54.8827 16.5075 54.9563 16.3976 55.0065 16.2766C55.0567 16.1557 55.0825 16.026 55.0825 15.895C55.0825 15.764 55.0567 15.6343 55.0065 15.5134C54.9563 15.3924 54.8827 15.2825 54.79 15.19L48.81 9.21001C48.6186 9.03166 48.3666 8.9325 48.105 8.9325C47.8434 8.9325 47.5914 9.03166 47.4 9.21001L46.19 10.42C45.4557 11.1552 44.5199 11.6562 43.5009 11.8595C42.482 12.0628 41.4256 11.9593 40.4654 11.5622C39.5052 11.1651 38.6843 10.4921 38.1067 9.62839C37.529 8.7647 37.2204 7.74908 37.22 6.71001V5.00001C37.2205 4.86855 37.1949 4.73831 37.1448 4.61678C37.0947 4.49524 37.0211 4.38482 36.9281 4.29187C36.8352 4.19892 36.7248 4.12528 36.6032 4.07518C36.4817 4.02509 36.3515 3.99954 36.22 4.00001H27.78C27.6486 3.99954 27.5183 4.02509 27.3968 4.07518C27.2752 4.12528 27.1648 4.19892 27.0719 4.29187C26.9789 4.38482 26.9053 4.49524 26.8552 4.61678C26.8051 4.73831 26.7795 4.86855 26.78 5.00001V6.71001C26.7796 7.74908 26.471 8.7647 25.8934 9.62839C25.3157 10.4921 24.4948 11.1651 23.5346 11.5622C22.5745 11.9593 21.5181 12.0628 20.4991 11.8595C19.4801 11.6562 18.5443 11.1552 17.81 10.42L16.6 9.21001C16.411 9.02691 16.1582 8.92454 15.895 8.92454C15.6319 8.92454 15.379 9.02691 15.19 9.21001L9.21001 15.19C9.11728 15.2825 9.04371 15.3924 8.99352 15.5134C8.94332 15.6343 8.91749 15.764 8.91749 15.895C8.91749 16.026 8.94332 16.1557 8.99352 16.2766C9.04371 16.3976 9.11728 16.5075 9.21001 16.6L10.42 17.82C11.1546 18.5537 11.6551 19.4889 11.858 20.5071C12.0609 21.5253 11.9572 22.5809 11.56 23.5401C11.1628 24.4994 10.49 25.3193 9.62663 25.896C8.76329 26.4727 7.74826 26.7804 6.71001 26.78H5.00001C4.86856 26.7795 4.73831 26.8051 4.61678 26.8552C4.49525 26.9053 4.38483 26.9789 4.29188 27.0719C4.19893 27.1648 4.12529 27.2752 4.0752 27.3968C4.0251 27.5183 3.99955 27.6486 4.00001 27.78V36.22C3.99955 36.3515 4.0251 36.4817 4.0752 36.6032C4.12529 36.7248 4.19893 36.8352 4.29188 36.9281C4.38483 37.0211 4.49525 37.0947 4.61678 37.1448C4.73831 37.1949 4.86856 37.2205 5.00001 37.22H6.71001C7.74908 37.2204 8.7647 37.529 9.6284 38.1066C10.4921 38.6843 11.1651 39.5052 11.5622 40.4654C11.9594 41.4256 12.0628 42.482 11.8595 43.5009C11.6562 44.5199 11.1552 45.4557 10.42 46.19L9.21001 47.4C9.11729 47.4925 9.04373 47.6024 8.99354 47.7234C8.94336 47.8444 8.91752 47.974 8.91752 48.105C8.91752 48.236 8.94336 48.3657 8.99354 48.4866C9.04373 48.6076 9.11729 48.7175 9.21001 48.81L15.19 54.79C16.2246 55.7443 17.1133 54.159 17.81 53.58C18.5486 52.8562 19.4836 52.3653 20.4988 52.1685C21.514 51.9716 22.5647 52.0773 23.5203 52.4726C24.476 52.8679 25.2944 53.5352 25.8739 54.3917C26.4534 55.2482 26.7685 56.2561 26.78 57.2901V59C26.7795 59.1315 26.8051 59.2617 26.8552 59.3832C26.9053 59.5048 26.9789 59.6152 27.0719 59.7081C27.1648 59.8011 27.2752 59.8747 27.3968 59.9248C27.5183 59.9749 27.6486 60.0005 27.78 60H36.22C36.3515 60.0005 36.4817 59.9749 36.6032 59.9248C36.7248 59.8747 36.8352 59.8011 36.9281 59.7081C37.0211 59.6152 37.0947 59.5048 37.1448 59.3832C37.1949 59.2617 37.2205 59.1315 37.22 59V57.29C37.2316 56.2559 37.5467 55.2481 38.1262 54.3916C38.7058 53.5351 39.5242 52.8678 40.4798 52.4726C41.4354 52.0774 42.4861 51.9716 43.5013 52.1685C44.5165 52.3654 45.4515 52.8563 46.1901 53.5801L47.4 54.79C47.4925 54.8827 47.6024 54.9563 47.7234 55.0065C47.8443 55.0567 47.974 55.0825 48.105 55.0825C48.236 55.0825 48.3657 55.0567 48.4866 55.0065C48.6076 54.9563 48.7175 54.8827 48.81 54.79L54.79 48.81C55.7443 47.7754 54.1591 46.8867 53.58 46.1899C52.8451 45.4556 52.3445 44.5198 52.1413 43.5009C51.9382 42.482 52.0417 41.4258 52.4388 40.4657C52.8359 39.5057 53.5087 38.6849 54.3722 38.1072C55.2357 37.5295 56.2511 37.2207 57.29 37.22H59C59.1315 37.2205 59.2617 37.1949 59.3832 37.1448C59.5048 37.0947 59.6152 37.0211 59.7081 36.9281C59.8011 36.8352 59.8747 36.7248 59.9248 36.6032C59.9749 36.4817 60.0005 36.3515 60 36.22V27.78C60.0005 27.6486 59.9749 27.5183 59.9248 27.3968C59.8747 27.2752 59.8011 27.1648 59.7081 27.0719C59.6152 26.9789 59.5048 26.9053 59.3832 26.8552C59.2617 26.8051 59.1315 26.7795 59 26.78ZM49.88 20.75C49.661 20.9891 45.5797 25.3878 45.5 25.47C46.4899 27.5043 47.003 29.7376 47 32C46.1781 51.8934 17.8243 51.8988 17 31.9999C16.8872 19.7708 31.3325 12.6078 40.9601 19.9702L45.9 16.29C46.5022 15.8497 47.2467 15.6493 47.9885 15.7278C48.7303 15.8063 49.4164 16.1581 49.9131 16.7147C50.4097 17.2713 50.6815 17.9928 50.6754 18.7387C50.6693 19.4847 50.3857 20.2016 49.88 20.75ZM32.0098 17.7705C32.2725 17.7731 32.5236 17.8789 32.7089 18.0652C32.8942 18.2514 32.9988 18.503 33.0001 18.7657C33.0014 19.0284 32.8992 19.2811 32.7157 19.4691C32.5323 19.6571 32.2822 19.7654 32.0195 19.7705C31.7568 19.7679 31.5057 19.6621 31.3204 19.4759C31.1351 19.2896 31.0306 19.038 31.0293 18.7753C31.028 18.5126 31.1302 18.2599 31.3136 18.0719C31.4971 17.8839 31.7472 17.7757 32.0098 17.7705ZM22.6553 21.6455C22.918 21.6481 23.1691 21.7539 23.3544 21.9402C23.5397 22.1264 23.6443 22.378 23.6456 22.6407C23.6469 22.9034 23.5447 23.1561 23.3613 23.3441C23.1778 23.5321 22.9277 23.6404 22.665 23.6455C22.4024 23.6429 22.1512 23.5371 21.9659 23.3509C21.7807 23.1646 21.6761 22.913 21.6748 22.6503C21.6735 22.3876 21.7757 22.135 21.9591 21.9469C22.1426 21.7589 22.3927 21.6507 22.6553 21.6455ZM18.79 33C18.5281 32.9962 18.2782 32.8898 18.0939 32.7037C17.9096 32.5176 17.8056 32.2667 17.8044 32.0048C17.8031 31.7429 17.9046 31.4909 18.0871 31.303C18.2696 31.1152 18.5185 31.0064 18.7803 31C19.0422 31.0038 19.2921 31.1102 19.4764 31.2963C19.6607 31.4824 19.7647 31.7333 19.7659 31.9952C19.7672 32.2571 19.6657 32.5091 19.4832 32.697C19.3007 32.8849 19.0518 32.9937 18.79 33ZM22.665 42.3545C22.4031 42.3507 22.1532 42.2443 21.9689 42.0582C21.7846 41.8721 21.6806 41.6212 21.6794 41.3593C21.6781 41.0974 21.7796 40.8454 21.9621 40.6575C22.1446 40.4697 22.3935 40.3608 22.6553 40.3545C22.9172 40.3583 23.1671 40.4647 23.3514 40.6508C23.5357 40.8369 23.6397 41.0878 23.6409 41.3497C23.6422 41.6116 23.5407 41.8636 23.3582 42.0515C23.1757 42.2393 22.9268 42.3481 22.665 42.3545ZM32.0195 46.2295C31.7576 46.2257 31.5077 46.1193 31.3234 45.9332C31.1391 45.7471 31.0351 45.4962 31.0339 45.2343C31.0326 44.9723 31.1341 44.7204 31.3166 44.5325C31.4991 44.3446 31.748 44.2358 32.0098 44.2295C32.2717 44.2333 32.5216 44.3397 32.7059 44.5258C32.8902 44.7119 32.9942 44.9628 32.9955 45.2247C32.9967 45.4866 32.8952 45.7386 32.7127 45.9265C32.5303 46.1143 32.2813 46.2231 32.0195 46.2295ZM41.374 42.3545C41.1121 42.3507 40.8622 42.2443 40.6779 42.0582C40.4936 41.8721 40.3896 41.6212 40.3884 41.3593C40.3871 41.0973 40.4886 40.8454 40.6711 40.6575C40.8536 40.4696 41.1025 40.3608 41.3643 40.3545C41.6262 40.3583 41.8761 40.4647 42.0604 40.6508C42.2447 40.8369 42.3487 41.0878 42.3499 41.3497C42.3512 41.6116 42.2497 41.8636 42.0672 42.0515C41.8847 42.2393 41.6358 42.3481 41.374 42.3545ZM45.2393 31C45.502 31.0026 45.7531 31.1084 45.9384 31.2947C46.1237 31.4809 46.2283 31.7325 46.2296 31.9952C46.2308 32.2579 46.1287 32.5106 45.9452 32.6986C45.7618 32.8866 45.5117 32.9949 45.249 33C44.9863 32.9974 44.7352 32.8916 44.5499 32.7054C44.3646 32.5191 44.2601 32.2675 44.2588 32.0048C44.2575 31.7421 44.3596 31.4894 44.5431 31.3014C44.7266 31.1134 44.9767 31.0051 45.2393 31ZM48.43 19.37C45.7482 22.252 35.5987 33.2242 32.74 36.31C32.6491 36.4072 32.5399 36.4854 32.4186 36.54C32.2973 36.5947 32.1663 36.6248 32.0334 36.6285C31.9004 36.6322 31.7679 36.6095 31.6438 36.5617C31.5196 36.5139 31.4062 36.442 31.31 36.35L23.3 28.47C23.1449 28.3105 23.0471 28.104 23.0222 27.883C22.9972 27.6619 23.0464 27.4388 23.162 27.2487C23.2777 27.0587 23.4532 26.9125 23.661 26.833C23.8688 26.7536 24.0972 26.7455 24.3101 26.81L31.8301 29.27C34.9437 26.9493 44.4382 19.8724 47.1001 17.89C47.3005 17.7482 47.546 17.685 47.79 17.7124C48.034 17.7397 48.2594 17.8557 48.4235 18.0383C48.5876 18.2209 48.6789 18.4574 48.6801 18.7029C48.6813 18.9484 48.5923 19.1858 48.43 19.37Z" fill="url(#paint0_linear_77_424)"/>
<defs>
<linearGradient id="paint0_linear_77_424" x1="4.00001" y1="32" x2="60" y2="32" gradientUnits="userSpaceOnUse">
<stop stop-color="#8FD0FF"/>
<stop offset="1" stop-color="#144EE3"/>
</linearGradient>
</defs>
</svg>
