<svg width="64" height="64" viewBox="0 0 64 64" fill="none" xmlns="http://www.w3.org/2000/svg">
<path d="M4 14.0906V11.7106C4.00095 11.215 4.19827 10.7399 4.54876 10.3894C4.89925 10.0389 5.37434 9.84157 5.87 9.84063H30.6C30.6064 10.8646 30.6 15.9606 30.6 15.9606H5.87C5.37433 15.9597 4.89924 15.7624 4.54875 15.4119C4.19826 15.0614 4.00094 14.5863 4 14.0906ZM52.98 42.1606V44.2706C52.9801 44.5333 52.9284 44.7934 52.8279 45.0361C52.7274 45.2788 52.5801 45.4993 52.3944 45.685C52.2087 45.8708 51.9881 46.0181 51.7455 46.1185C51.5028 46.219 51.2427 46.2707 50.98 46.2706H45.2803V51.4807C46.123 51.722 46.8503 52.2596 47.3279 52.9946C47.8056 53.7296 48.0016 54.6125 47.8798 55.4806C47.758 56.3487 47.3266 57.1436 46.665 57.7188C46.0035 58.2939 45.1564 58.6106 44.2798 58.6106C43.4032 58.6106 42.5561 58.2937 41.8946 57.7185C41.2331 57.1433 40.8018 56.3484 40.6801 55.4803C40.5583 54.6122 40.7544 53.7293 41.2322 52.9943C41.7099 52.2593 42.4372 51.7218 43.28 51.4806L43.2802 46.2706H6C5.73734 46.2707 5.47723 46.219 5.23454 46.1185C4.99186 46.0181 4.77135 45.8707 4.58562 45.685C4.39989 45.4993 4.25257 45.2788 4.15209 45.0361C4.05161 44.7934 3.99993 44.5333 4 44.2706V42.1606C3.99993 41.898 4.05161 41.6379 4.1521 41.3952C4.25258 41.1525 4.3999 40.932 4.58563 40.7463C4.77136 40.5605 4.99187 40.4132 5.23455 40.3127C5.47723 40.2122 5.73734 40.1606 6 40.1606H50.98C51.2427 40.1605 51.5028 40.2122 51.7455 40.3127C51.9881 40.4132 52.2086 40.5605 52.3944 40.7462C52.5801 40.932 52.7274 41.1525 52.8279 41.3952C52.9284 41.6379 52.9801 41.898 52.98 42.1606ZM42.64 54.9705C42.6458 55.4016 42.8212 55.8131 43.1281 56.1159C43.435 56.4187 43.8488 56.5885 44.28 56.5885C44.7111 56.5885 45.1249 56.4188 45.4319 56.116C45.7388 55.8132 45.9142 55.4017 45.92 54.9706C45.9142 54.5395 45.7388 54.128 45.4319 53.8252C45.125 53.5224 44.7112 53.3526 44.28 53.3526C43.8489 53.3526 43.4351 53.5223 43.1281 53.8251C42.8212 54.1279 42.6458 54.5394 42.64 54.9705ZM60 9.07062V20.1806C59.9992 21.1564 59.6112 22.0919 58.9212 22.7819C58.2313 23.4718 57.2957 23.8598 56.32 23.8606H46.95C46.5086 23.8619 46.0721 23.954 45.6679 24.1312C45.2636 24.3084 44.9001 24.5669 44.6 24.8906L40.4601 29.3805C40.1939 29.6635 39.849 29.8603 39.4699 29.9453C39.0908 30.0304 38.6949 30 38.3333 29.8579C37.9716 29.7159 37.6609 29.4687 37.441 29.1484C37.2212 28.828 37.1024 28.4491 37.1 28.0606V24.5806C37.0991 24.3899 37.023 24.2073 36.8881 24.0725C36.7533 23.9377 36.5707 23.8615 36.38 23.8606C35.8886 23.873 35.3998 23.787 34.9421 23.6077C34.4845 23.4284 34.0673 23.1594 33.7152 22.8165C33.363 22.4737 33.0829 22.0639 32.8914 21.6112C32.6999 21.1585 32.6008 20.6721 32.6 20.1806V9.07062C32.6008 8.09488 32.9888 7.15933 33.6787 6.46938C34.3687 5.77942 35.3043 5.39144 36.28 5.39062H56.32C57.2957 5.39144 58.2313 5.77942 58.9213 6.46937C59.6112 7.15933 59.9992 8.09488 60 9.07062ZM54.96 16.3106H37.64C37.3773 16.3145 37.1268 16.4216 36.9424 16.6087C36.7581 16.7958 36.6547 17.0479 36.6547 17.3106C36.6547 17.5733 36.758 17.8254 36.9424 18.0125C37.1267 18.1996 37.3773 18.3067 37.6399 18.3106H54.96C55.2226 18.3067 55.4732 18.1997 55.6576 18.0125C55.8419 17.8254 55.9453 17.5733 55.9453 17.3106C55.9453 17.0479 55.8419 16.7958 55.6576 16.6087C55.4732 16.4216 55.2226 16.3145 54.96 16.3106ZM37.64 12.9306H49.08C49.3452 12.9306 49.5996 12.8253 49.7871 12.6377C49.9746 12.4502 50.08 12.1958 50.08 11.9306C50.08 11.6654 49.9746 11.4111 49.7871 11.2235C49.5996 11.036 49.3452 10.9306 49.08 10.9306H37.64C37.3748 10.9306 37.1204 11.036 36.9329 11.2235C36.7454 11.4111 36.64 11.6654 36.64 11.9306C36.64 12.1958 36.7454 12.4502 36.9329 12.6377C37.1204 12.8253 37.3748 12.9306 37.64 12.9306ZM30.6 20.1806V17.9606H7.24V38.1606C9.50746 38.1598 47.4698 38.1613 49.74 38.1606V25.8606C49.144 25.8583 47.5064 25.8623 46.9501 25.8606C46.7867 25.8607 46.6251 25.8945 46.4754 25.9599C46.3257 26.0253 46.1911 26.1209 46.0801 26.2406L41.9401 30.7406C41.3977 31.3143 40.6963 31.7128 39.9259 31.8851C39.1555 32.0573 38.3512 31.9955 37.6161 31.7075C36.8811 31.4195 36.2489 30.9185 35.8006 30.2687C35.3523 29.6189 35.1083 28.8499 35.1001 28.0605V25.7406C33.8274 25.4678 32.6867 24.7672 31.8679 23.7555C31.0491 22.7438 30.6016 21.4822 30.6 20.1806Z" fill="url(#paint0_linear_148_1478)"/>
<defs>
<linearGradient id="paint0_linear_148_1478" x1="4" y1="5.39063" x2="61.1506" y2="6.65634" gradientUnits="userSpaceOnUse">
<stop stop-color="#1F9CFF"/>
<stop offset="1" stop-color="#144EE3"/>
</linearGradient>
</defs>
</svg>
