<svg width="64" height="64" viewBox="0 0 64 64" fill="none" xmlns="http://www.w3.org/2000/svg">
<path d="M27.2472 6.3L26.0972 4H37.8972L36.7472 6.3H27.2472ZM48.1272 6V58C48.1273 58.2627 48.0756 58.5228 47.9751 58.7654C47.8746 59.0081 47.7273 59.2286 47.5416 59.4144C47.3558 59.6001 47.1353 59.7474 46.8926 59.8479C46.65 59.9484 46.3899 60.0001 46.1272 60H17.8672C17.6045 60.0001 17.3444 59.9484 17.1017 59.8479C16.8591 59.7474 16.6385 59.6001 16.4528 59.4144C16.2671 59.2286 16.1198 59.0081 16.0193 58.7654C15.9188 58.5228 15.8671 58.2627 15.8672 58V6C15.8671 5.73734 15.9188 5.47723 16.0193 5.23454C16.1198 4.99186 16.2671 4.77135 16.4528 4.58562C16.6385 4.39989 16.859 4.25257 17.1017 4.15209C17.3444 4.05161 17.6045 3.99993 17.8672 4H23.8572L25.7272 7.74C25.8108 7.90741 25.9392 8.04836 26.098 8.14722C26.2569 8.24607 26.4401 8.29896 26.6272 8.3H37.3672C37.5543 8.29896 37.7375 8.24607 37.8963 8.14722C38.0552 8.04836 38.1836 7.90741 38.2672 7.74L40.1372 4H46.1272C46.3899 3.99993 46.65 4.05161 46.8926 4.15209C47.1353 4.25257 47.3558 4.39989 47.5416 4.58562C47.7273 4.77135 47.8746 4.99186 47.9751 5.23454C48.0756 5.47723 48.1273 5.73734 48.1272 6ZM44.0672 40.11C43.4416 38.2748 42.4045 36.607 41.0352 35.2342C39.6658 33.8615 38.0006 32.8202 36.167 32.19C42.0602 28.1966 39.2084 18.7446 31.9974 18.7501C24.7867 18.7389 21.9355 28.2029 27.8272 32.19C25.9936 32.8202 24.3284 33.8615 22.9591 35.2342C21.5899 36.6069 20.5528 38.2747 19.9272 40.1099C19.7403 40.7004 19.6949 41.3266 19.7947 41.9378C19.8946 42.5491 20.1368 43.1283 20.5018 43.6287C20.8669 44.129 21.3445 44.5365 21.8961 44.8181C22.4477 45.0998 23.0578 45.2477 23.6772 45.25H40.3172C40.9495 45.2482 41.5723 45.0958 42.134 44.8054C42.6957 44.5149 43.1801 44.0949 43.5472 43.58C43.9075 43.0865 44.143 42.5132 44.2335 41.9089C44.3241 41.3046 44.267 40.6874 44.0672 40.11ZM37.3672 26.12C37.1413 19.0252 26.8542 19.0235 26.6272 26.1199C26.8532 33.2148 37.1402 33.2164 37.3672 26.12ZM31.9972 33.49C29.7542 33.4892 27.5671 34.1896 25.7418 35.4931C23.9165 36.7967 22.5443 38.6382 21.8172 40.76C21.7228 41.037 21.6971 41.3329 21.7424 41.6221C21.7877 41.9113 21.9026 42.1851 22.0772 42.42C22.2587 42.6756 22.4985 42.8842 22.7768 43.0285C23.0551 43.1729 23.3637 43.2488 23.6772 43.25H40.3172C40.6307 43.2488 40.9393 43.1729 41.2176 43.0285C41.4958 42.8842 41.7357 42.6756 41.9172 42.42C42.0918 42.1851 42.2067 41.9113 42.252 41.6221C42.2973 41.3329 42.2716 41.037 42.1772 40.76C41.4501 38.6382 40.0779 36.7967 38.2526 35.4931C36.4273 34.1896 34.2402 33.4892 31.9972 33.49Z" fill="url(#paint0_linear_77_433)"/>
<defs>
<linearGradient id="paint0_linear_77_433" x1="15.8672" y1="4" x2="48.8013" y2="4.39932" gradientUnits="userSpaceOnUse">
<stop stop-color="#1F9CFF"/>
<stop offset="1" stop-color="#144EE3"/>
</linearGradient>
</defs>
</svg>
