<svg width="45" height="46" viewBox="0 0 45 46" fill="none" xmlns="http://www.w3.org/2000/svg">
<rect y="0.5" width="45" height="45" rx="22.5" fill="#49566F"/>
<path d="M11.25 14.2392C11.25 13.5177 11.5034 12.9224 12.0101 12.4535C12.5169 11.9845 13.1757 11.75 13.9865 11.75C14.7828 11.75 15.4271 11.9809 15.9194 12.4426C16.4262 12.9188 16.6795 13.5393 16.6795 14.3041C16.6795 14.9968 16.4334 15.5739 15.9411 16.0357C15.4344 16.5119 14.7683 16.75 13.9431 16.75H13.9213C13.125 16.75 12.4807 16.5119 11.9884 16.0357C11.4961 15.5595 11.25 14.9607 11.25 14.2392ZM11.5323 33.1786V18.7197H16.3538V33.1786H11.5323ZM19.0251 33.1786H23.8465V25.105C23.8465 24.5999 23.9044 24.2103 24.0203 23.9361C24.223 23.4455 24.5306 23.0306 24.9433 22.6916C25.3559 22.3524 25.8735 22.1829 26.4961 22.1829C28.1178 22.1829 28.9286 23.2724 28.9286 25.4513V33.1786H33.75V24.8885C33.75 22.7529 33.2432 21.1331 32.2297 20.0292C31.2162 18.9253 29.8769 18.3734 28.2119 18.3734C26.3441 18.3734 24.889 19.1742 23.8465 20.776V20.8193H23.8248L23.8465 20.776V18.7197H19.0251C19.054 19.1814 19.0685 20.6172 19.0685 23.0271C19.0685 25.4369 19.054 28.8207 19.0251 33.1786Z" fill="white"/>
</svg>
