<svg width="45" height="46" viewBox="0 0 45 46" fill="none" xmlns="http://www.w3.org/2000/svg">
<rect y="0.5" width="45" height="45" rx="22.5" fill="#49566F"/>
<path d="M26.2838 14.2541V14.25H27.3388L27.7243 14.327C27.9813 14.377 28.2146 14.4425 28.4243 14.5235C28.6339 14.6046 28.8368 14.6991 29.0329 14.8072C29.229 14.9152 29.4069 15.0253 29.5665 15.1374C29.7248 15.2482 29.8668 15.3657 29.9926 15.4899C30.117 15.6156 30.3111 15.648 30.5748 15.5872C30.8386 15.5264 31.1226 15.442 31.427 15.3339C31.7313 15.2259 32.0322 15.1043 32.3298 14.9692C32.6274 14.8342 32.8086 14.7484 32.8736 14.7119C32.9371 14.6741 32.9709 14.6539 32.975 14.6512L32.979 14.6451L32.9993 14.6349L33.0196 14.6248L33.0399 14.6147L33.0602 14.6046L33.0642 14.5985L33.0703 14.5944L33.0764 14.5904L33.0805 14.5843L33.1008 14.5782L33.1211 14.5742L33.117 14.6046L33.1109 14.6349L33.1008 14.6653L33.0906 14.6957L33.0805 14.716L33.0703 14.7363L33.0602 14.7666C33.0534 14.7869 33.0467 14.8139 33.0399 14.8477C33.0331 14.8815 32.9689 15.0165 32.8472 15.2529C32.7254 15.4893 32.5733 15.729 32.3907 15.9721C32.2081 16.2153 32.0444 16.399 31.8997 16.5232C31.7536 16.6488 31.6569 16.7366 31.6096 16.7866C31.5622 16.8379 31.5047 16.8852 31.4371 16.9284L31.3357 16.9953L31.3154 17.0054L31.2951 17.0156L31.291 17.0216L31.2849 17.0257L31.2789 17.0297L31.2748 17.0358L31.2545 17.046L31.2342 17.0561L31.2302 17.0622L31.2241 17.0662L31.218 17.0703L31.2139 17.0763L31.2099 17.0824L31.2038 17.0865L31.1977 17.0905L31.1936 17.0966H31.2951L31.8632 16.975C32.2419 16.894 32.6037 16.7961 32.9486 16.6813L33.4964 16.4989L33.5573 16.4787L33.5877 16.4685L33.608 16.4584L33.6283 16.4483L33.6486 16.4381L33.6688 16.428L33.7094 16.4219L33.75 16.4179V16.4584L33.7399 16.4624L33.7297 16.4685L33.7257 16.4746L33.7196 16.4787L33.7135 16.4827L33.7094 16.4888L33.7054 16.4949L33.6993 16.4989L33.6932 16.503L33.6891 16.509L33.6851 16.5151L33.679 16.5192L33.6688 16.5394L33.6587 16.5597L33.6526 16.5638C33.6499 16.5678 33.564 16.6826 33.3949 16.9082C33.2259 17.1351 33.1346 17.2499 33.1211 17.2526C33.1075 17.2567 33.0886 17.2769 33.0642 17.3134C33.0413 17.3512 32.8979 17.5018 32.6341 17.7652C32.3704 18.0286 32.1121 18.2629 31.8591 18.4682C31.6049 18.6749 31.4763 18.9288 31.4736 19.23C31.4696 19.5299 31.454 19.8689 31.427 20.2471C31.3999 20.6253 31.3492 21.0339 31.2748 21.4729C31.2004 21.9119 31.0854 22.4082 30.9299 22.962C30.7744 23.5158 30.585 24.0561 30.3618 24.5829C30.1386 25.1096 29.9053 25.5824 29.6619 26.0011C29.4184 26.4198 29.1952 26.7744 28.9923 27.0648C28.7894 27.3552 28.5832 27.6287 28.3735 27.8853C28.1639 28.142 27.8988 28.431 27.5782 28.7525C27.2563 29.0726 27.0805 29.2482 27.0507 29.2792C27.0196 29.309 26.8871 29.4197 26.6531 29.6115C26.4204 29.8047 26.1702 29.9978 25.9024 30.191C25.6359 30.3828 25.3911 30.5428 25.1679 30.6711C24.9448 30.7995 24.6756 30.946 24.3605 31.1108C24.0467 31.2769 23.7072 31.4309 23.342 31.5727C22.9768 31.7146 22.5913 31.8463 22.1855 31.9678C21.7798 32.0894 21.3875 32.1839 21.0088 32.2515C20.6301 32.319 20.2006 32.3764 19.7205 32.4237L19.0002 32.4946V32.5047H17.6815V32.4946L17.509 32.4845C17.3941 32.4777 17.2994 32.4709 17.225 32.4642C17.1506 32.4575 16.8699 32.4203 16.383 32.3528C15.8961 32.2852 15.514 32.2177 15.2367 32.1502C14.9594 32.0826 14.5469 31.9543 13.9991 31.7652C13.4513 31.5761 12.9826 31.385 12.5931 31.1918C12.2049 31 11.9615 30.8785 11.8627 30.8272C11.7653 30.7772 11.6558 30.715 11.534 30.6408L11.3514 30.5293L11.3474 30.5232L11.3413 30.5192L11.3352 30.5151L11.3312 30.5091L11.3109 30.4989L11.2906 30.4888L11.2865 30.4827L11.2804 30.4787L11.2743 30.4746L11.2703 30.4685L11.2663 30.4625L11.2601 30.4584H11.25V30.4179L11.2703 30.4219L11.2906 30.428L11.3819 30.4381C11.4427 30.4449 11.6084 30.455 11.8789 30.4685C12.1495 30.4821 12.4369 30.4821 12.7412 30.4685C13.0455 30.455 13.3566 30.4246 13.6745 30.3774C13.9923 30.3301 14.3677 30.2491 14.8005 30.1342C15.2333 30.0194 15.631 29.883 15.9935 29.725C16.3546 29.5656 16.6116 29.4467 16.7644 29.3684C16.9159 29.2914 17.1472 29.1482 17.4583 28.9389L17.9249 28.6248L17.929 28.6188L17.9351 28.6147L17.9412 28.6107L17.9452 28.6046L17.9493 28.5985L17.9554 28.5944L17.9615 28.5904L17.9655 28.5843L17.9858 28.5782L18.0061 28.5742L18.0101 28.5539L18.0162 28.5337L18.0223 28.5296L18.0264 28.5235L17.8641 28.5134C17.7559 28.5067 17.651 28.4999 17.5496 28.4931C17.4482 28.4864 17.2892 28.456 17.0728 28.402C16.8564 28.3479 16.6231 28.2669 16.3729 28.1588C16.1226 28.0508 15.8792 27.9225 15.6425 27.7739C15.4058 27.6253 15.2347 27.5017 15.1292 27.4031C15.025 27.3059 14.8898 27.1681 14.7234 26.9898C14.5584 26.8102 14.415 26.6258 14.2933 26.4367C14.1716 26.2476 14.0552 26.0294 13.9443 25.7823L13.7759 25.4135L13.7658 25.3832L13.7556 25.3528L13.7495 25.3325L13.7455 25.3122L13.7759 25.3163L13.8064 25.3224L14.0295 25.3528C14.1783 25.373 14.4116 25.3798 14.7295 25.373C15.0473 25.3663 15.2671 25.3528 15.3889 25.3325C15.5106 25.3122 15.585 25.2987 15.612 25.292L15.6526 25.2818L15.7033 25.2717L15.7541 25.2616L15.7581 25.2555L15.7642 25.2515L15.7703 25.2474L15.7743 25.2413L15.7338 25.2312L15.6932 25.2211L15.6526 25.2109L15.612 25.2008L15.5715 25.1907C15.5444 25.1839 15.4971 25.1704 15.4294 25.1502C15.3618 25.1299 15.1792 25.0556 14.8816 24.9273C14.5841 24.799 14.3474 24.674 14.1716 24.5525C13.9953 24.4306 13.8272 24.2972 13.6684 24.1533C13.5101 24.0075 13.3364 23.8197 13.147 23.5901C12.9576 23.3605 12.7886 23.0937 12.6398 22.7898C12.491 22.4859 12.3794 22.1955 12.305 21.9186C12.2309 21.6433 12.182 21.3619 12.1589 21.0778L12.1224 20.6523L12.1427 20.6564L12.163 20.6625L12.1833 20.6726L12.2036 20.6827L12.2239 20.6928L12.2441 20.703L12.5586 20.8448C12.7683 20.9394 13.0286 21.0204 13.3397 21.0879C13.6508 21.1555 13.8368 21.1926 13.8977 21.1994L13.989 21.2095H14.1716L14.1675 21.2034L14.1614 21.1994L14.1553 21.1953L14.1513 21.1892L14.1472 21.1831L14.1411 21.1791L14.135 21.175L14.131 21.169L14.1107 21.1588L14.0904 21.1487L14.0864 21.1426L14.0803 21.1386L14.0742 21.1345L14.0701 21.1284L14.0498 21.1183L14.0295 21.1082L14.0255 21.1021C14.0214 21.0994 13.9633 21.0562 13.851 20.9724C13.7401 20.8873 13.6238 20.7773 13.502 20.6422C13.3803 20.5071 13.2586 20.3653 13.1368 20.2167C13.0149 20.0678 12.9063 19.9085 12.8122 19.7406C12.7176 19.5718 12.6174 19.357 12.5119 19.0963C12.4078 18.837 12.3287 18.5756 12.2746 18.3122C12.2205 18.0488 12.19 17.7888 12.1833 17.5322C12.1765 17.2756 12.1833 17.0561 12.2036 16.8737C12.2239 16.6914 12.2644 16.4854 12.3253 16.2558C12.3862 16.0262 12.4741 15.7831 12.589 15.5264L12.7615 15.1415L12.7716 15.1111L12.7818 15.0807L12.7879 15.0766L12.7919 15.0706L12.796 15.0645L12.8021 15.0604L12.8082 15.0645L12.8122 15.0706L12.8163 15.0766L12.8224 15.0807L12.8285 15.0847L12.8325 15.0908L12.8366 15.0969L12.8427 15.1009L12.8528 15.1212L12.8629 15.1415L12.869 15.1455L12.8731 15.1516L13.147 15.4555C13.3296 15.6581 13.546 15.8844 13.7962 16.1342C14.0465 16.3841 14.1851 16.5138 14.2121 16.5232C14.2392 16.534 14.273 16.5651 14.3136 16.6164C14.3541 16.6664 14.4894 16.7859 14.7193 16.975C14.9493 17.1641 15.2502 17.3836 15.6222 17.6335C15.9942 17.8834 16.4067 18.1299 16.8598 18.373C17.3129 18.6161 17.7998 18.8356 18.3206 19.0315C18.8413 19.2273 19.2065 19.3556 19.4161 19.4164C19.6258 19.4772 19.9842 19.5549 20.4914 19.6494C20.9986 19.744 21.3808 19.8048 21.6377 19.8318C21.8947 19.8588 22.0706 19.8743 22.1652 19.8784L22.3073 19.8824L22.3032 19.852L22.2971 19.8216L22.2565 19.5684C22.2295 19.3996 22.216 19.1632 22.216 18.8593C22.216 18.5554 22.2396 18.2751 22.287 18.0185C22.3343 17.7618 22.4053 17.5018 22.5 17.2384C22.5947 16.975 22.6873 16.7636 22.778 16.6043C22.8699 16.4462 22.9903 16.2659 23.1391 16.0633C23.2879 15.8607 23.4806 15.6514 23.7173 15.4352C23.954 15.2191 24.2245 15.0266 24.5289 14.8578C24.8332 14.689 25.1139 14.5607 25.3708 14.4729C25.6278 14.3851 25.8442 14.3277 26.0201 14.3007C26.1959 14.2736 26.2838 14.2581 26.2838 14.2541Z" fill="white"/>
</svg>
