<svg width="16" height="21" viewBox="0 0 16 21" fill="none" xmlns="http://www.w3.org/2000/svg">
<g clip-path="url(#clip0_231_355)">
<path d="M11.2338 15.3359C11.6126 14.0898 12.3978 13.0273 13.1751 11.9688C13.3803 11.6914 13.5855 11.4141 13.7827 11.1328C14.564 10.0195 15.0217 8.67188 15.0217 7.21484C15.0217 3.41406 11.9125 0.335938 8.07726 0.335938C4.24203 0.335938 1.13281 3.41406 1.13281 7.21094C1.13281 8.66797 1.59051 10.0195 2.37176 11.1289C2.56905 11.4102 2.77423 11.6875 2.9794 11.9648C3.76065 13.0234 4.54585 14.0898 4.92069 15.332H11.2338V15.3359ZM8.07726 20.3359C9.82126 20.3359 11.2338 18.9375 11.2338 17.2109V16.5859H4.92069V17.2109C4.92069 18.9375 6.33325 20.3359 8.07726 20.3359ZM4.92069 7.21094C4.92069 7.55469 4.6366 7.83594 4.28938 7.83594C3.94216 7.83594 3.65806 7.55469 3.65806 7.21094C3.65806 4.79297 5.63486 2.83594 8.07726 2.83594C8.42448 2.83594 8.70857 3.11719 8.70857 3.46094C8.70857 3.80469 8.42448 4.08594 8.07726 4.08594C6.33325 4.08594 4.92069 5.48438 4.92069 7.21094Z" fill="#FFA95A"/>
</g>
<defs>
<clipPath id="clip0_231_355">
<rect width="15.1515" height="20" fill="white" transform="translate(0.5 0.335938)"/>
</clipPath>
</defs>
</svg>
