<svg width="26" height="26" viewBox="0 0 26 26" fill="none" xmlns="http://www.w3.org/2000/svg">
<g clip-path="url(#clip0_204_1474)">
<path d="M12.1718 22.1872C12.6802 21.8803 13.3169 21.8803 13.8254 22.1872L19.0552 25.3438C20.2669 26.0752 21.7617 24.9887 21.4401 23.6104L20.0521 17.6618C19.9172 17.0834 20.1137 16.4778 20.5626 16.0889L25.1854 12.0843C26.2552 11.1576 25.6833 9.4003 24.273 9.28068L18.1901 8.76478C17.5987 8.71463 17.0837 8.3413 16.8521 7.7949L14.4717 2.1787C13.9203 0.877892 12.0768 0.877896 11.5254 2.1787L9.14498 7.7949C8.91339 8.3413 8.39839 8.71463 7.80706 8.76478L1.72414 9.28069C0.313824 9.4003 -0.25806 11.1576 0.811731 12.0843L5.43449 16.0889C5.88342 16.4778 6.07998 17.0834 5.94502 17.6618L4.55701 23.6104C4.2354 24.9887 5.73021 26.0752 6.94195 25.3438L12.1718 22.1872Z" fill="#EAC73C"/>
</g>
<defs>
<clipPath id="clip0_204_1474">
<rect width="26" height="26" fill="white"/>
</clipPath>
</defs>
</svg>
