<svg width="60" height="60" viewBox="0 0 60 60" fill="none" xmlns="http://www.w3.org/2000/svg">
<g clip-path="url(#clip0_79_1091)">
<path d="M60 30C60 13.4315 46.5685 0 30 0C13.4315 0 0 13.4315 0 30C0 46.5685 13.4315 60 30 60C46.5685 60 60 46.5685 60 30Z" fill="white"/>
<path d="M22.454 16.3484V18.2984H19.6254C18.0638 18.2984 16.7969 19.6086 16.7969 21.2234V24.1484H43.1969V21.2234C43.1969 19.6086 41.9299 18.2984 40.3682 18.2984H37.5398V16.3484C37.5398 15.2699 36.697 14.3984 35.6539 14.3984C34.6109 14.3984 33.7682 15.2699 33.7682 16.3484V18.2984H26.2255V16.3484C26.2255 15.2699 25.3829 14.3984 24.3398 14.3984C23.2967 14.3984 22.454 15.2699 22.454 16.3484ZM43.1969 26.0984H16.7969V42.6733C16.7969 44.2883 18.0638 45.5984 19.6254 45.5984H40.3682C41.9299 45.5984 43.1969 44.2883 43.1969 42.6733V26.0984Z" fill="url(#paint0_linear_79_1091)"/>
</g>
<defs>
<linearGradient id="paint0_linear_79_1091" x1="16.7969" y1="14.3984" x2="43.744" y2="14.8784" gradientUnits="userSpaceOnUse">
<stop stop-color="#1F9CFF"/>
<stop offset="1" stop-color="#891CF7"/>
</linearGradient>
<clipPath id="clip0_79_1091">
<rect width="60" height="60" fill="white"/>
</clipPath>
</defs>
</svg>
