<svg width="60" height="60" viewBox="0 0 60 60" fill="none" xmlns="http://www.w3.org/2000/svg">
<g clip-path="url(#clip0_79_1088)">
<path d="M60 30C60 13.4315 46.5685 0 30 0C13.4315 0 0 13.4315 0 30C0 46.5685 13.4315 60 30 60C46.5685 60 60 46.5685 60 30Z" fill="white"/>
<path d="M18.3016 19.2031C16.8109 19.2031 15.6016 20.4125 15.6016 21.9031C15.6016 22.7525 16.0009 23.5513 16.6816 24.0631L28.9216 33.2431C29.5628 33.7212 30.4403 33.7212 31.0816 33.2431L43.3216 24.0631C44.0022 23.5513 44.4016 22.7525 44.4016 21.9031C44.4016 20.4125 43.1922 19.2031 41.7016 19.2031H18.3016ZM15.6016 25.5031V37.2031C15.6016 39.1886 17.2159 40.8031 19.2016 40.8031H40.8016C42.7871 40.8031 44.4016 39.1886 44.4016 37.2031V25.5031L32.1616 34.6831C30.879 35.645 29.1241 35.645 27.8416 34.6831L15.6016 25.5031Z" fill="url(#paint0_linear_79_1088)"/>
</g>
<defs>
<linearGradient id="paint0_linear_79_1088" x1="15.6016" y1="19.2031" x2="44.9846" y2="20.0277" gradientUnits="userSpaceOnUse">
<stop stop-color="#1F9CFF"/>
<stop offset="1" stop-color="#891CF7"/>
</linearGradient>
<clipPath id="clip0_79_1088">
<rect width="60" height="60" fill="white"/>
</clipPath>
</defs>
</svg>
