<svg width="60" height="60" viewBox="0 0 60 60" fill="none" xmlns="http://www.w3.org/2000/svg">
<g clip-path="url(#clip0_79_1251)">
<path d="M60 30C60 13.4315 46.5685 0 30 0C13.4315 0 0 13.4315 0 30C0 46.5685 13.4315 60 30 60C46.5685 60 60 46.5685 60 30Z" fill="white"/>
<path d="M22.1969 14.3984C20.0458 14.3984 18.2969 16.1473 18.2969 18.2984V41.6984C18.2969 43.8496 20.0458 45.5984 22.1969 45.5984H37.7969C39.948 45.5984 41.6969 43.8496 41.6969 41.6984V24.1484H33.8969C32.8183 24.1484 31.9469 23.277 31.9469 22.1984V14.3984H22.1969ZM33.8969 14.3984V22.1984H41.6969L33.8969 14.3984ZM23.1719 18.2984H27.0718C27.6082 18.2984 28.0469 18.7372 28.0469 19.2734C28.0469 19.8097 27.6082 20.2484 27.0718 20.2484H23.1719C22.6356 20.2484 22.1969 19.8097 22.1969 19.2734C22.1969 18.7372 22.6356 18.2984 23.1719 18.2984ZM23.1719 22.1984H27.0718C27.6082 22.1984 28.0469 22.6372 28.0469 23.1734C28.0469 23.7097 27.6082 24.1484 27.0718 24.1484H23.1719C22.6356 24.1484 22.1969 23.7097 22.1969 23.1734C22.1969 22.6372 22.6356 22.1984 23.1719 22.1984ZM24.1469 28.0484H35.8469C36.9254 28.0484 37.7969 28.9199 37.7969 29.9984V33.8984C37.7969 34.977 36.9254 35.8484 35.8469 35.8484H24.1469C23.0683 35.8484 22.1969 34.977 22.1969 33.8984V29.9984C22.1969 28.9199 23.0683 28.0484 24.1469 28.0484ZM24.1469 29.9984V33.8984H35.8469V29.9984H24.1469ZM32.922 39.7484H36.822C37.3582 39.7484 37.7969 40.1872 37.7969 40.7236C37.7969 41.2597 37.3582 41.6984 36.822 41.6984H32.922C32.3856 41.6984 31.9469 41.2597 31.9469 40.7236C31.9469 40.1872 32.3856 39.7484 32.922 39.7484Z" fill="url(#paint0_linear_79_1251)"/>
</g>
<defs>
<linearGradient id="paint0_linear_79_1251" x1="18.2969" y1="14.3984" x2="42.1834" y2="14.7755" gradientUnits="userSpaceOnUse">
<stop stop-color="#1F9CFF"/>
<stop offset="1" stop-color="#891CF7"/>
</linearGradient>
<clipPath id="clip0_79_1251">
<rect width="60" height="60" fill="white"/>
</clipPath>
</defs>
</svg>
