<svg width="60" height="60" viewBox="0 0 60 60" fill="none" xmlns="http://www.w3.org/2000/svg">
<g clip-path="url(#clip0_79_1254)">
<path d="M60 30C60 13.4315 46.5685 0 30 0C13.4315 0 0 13.4315 0 30C0 46.5685 13.4315 60 30 60C46.5685 60 60 46.5685 60 30Z" fill="white"/>
<path d="M29.9984 14.3984C34.1358 14.3984 38.1037 16.042 41.0293 18.9676C43.9549 21.8931 45.5984 25.8611 45.5984 29.9984C45.5984 34.1358 43.9549 38.1037 41.0293 41.0293C38.1037 43.9549 34.1358 45.5984 29.9984 45.5984C25.8611 45.5984 21.8931 43.9549 18.9676 41.0293C16.042 38.1037 14.3984 34.1358 14.3984 29.9984C14.3984 25.8611 16.042 21.8931 18.9676 18.9676C21.8931 16.042 25.8611 14.3984 29.9984 14.3984ZM28.5359 21.7109V29.9984C28.5359 30.4859 28.7797 30.9431 29.188 31.2172L35.038 35.1172C35.7083 35.5681 36.6162 35.3852 37.0672 34.7089C37.5181 34.0326 37.3352 33.1307 36.6589 32.6797L31.461 29.2184V21.7109C31.461 20.9005 30.8089 20.2484 29.9984 20.2484C29.188 20.2484 28.5359 20.9005 28.5359 21.7109Z" fill="url(#paint0_linear_79_1254)"/>
</g>
<defs>
<linearGradient id="paint0_linear_79_1254" x1="14.3984" y1="14.3984" x2="46.241" y2="15.0686" gradientUnits="userSpaceOnUse">
<stop stop-color="#1F9CFF"/>
<stop offset="1" stop-color="#891CF7"/>
</linearGradient>
<clipPath id="clip0_79_1254">
<rect width="60" height="60" fill="white"/>
</clipPath>
</defs>
</svg>
