<svg width="60" height="60" viewBox="0 0 60 60" fill="none" xmlns="http://www.w3.org/2000/svg">
<g clip-path="url(#clip0_79_1248)">
<path d="M60 30C60 13.4315 46.5685 0 30 0C13.4315 0 0 13.4315 0 30C0 46.5685 13.4315 60 30 60C46.5685 60 60 46.5685 60 30Z" fill="white"/>
<path d="M30 18C30.8297 18 31.5 18.6703 31.5 19.5V22.5H37.1251C38.9906 22.5 40.5 24.0094 40.5 25.8749V38.6251C40.5 40.4906 38.9906 42 37.1251 42H22.875C21.0094 42 19.5 40.4906 19.5 38.6251V25.8749C19.5 24.0094 21.0094 22.5 22.875 22.5H28.5V19.5C28.5 18.6703 29.1703 18 30 18ZM24.75 36C24.3374 36 24 36.3374 24 36.75C24 37.1626 24.3374 37.5 24.75 37.5H26.25C26.6626 37.5 27 37.1626 27 36.75C27 36.3374 26.6626 36 26.25 36H24.75ZM29.25 36C28.8374 36 28.5 36.3374 28.5 36.75C28.5 37.1626 28.8374 37.5 29.25 37.5H30.75C31.1626 37.5 31.5 37.1626 31.5 36.75C31.5 36.3374 31.1626 36 30.75 36H29.25ZM33.75 36C33.3374 36 33 36.3374 33 36.75C33 37.1626 33.3374 37.5 33.75 37.5H35.25C35.6626 37.5 36 37.1626 36 36.75C36 36.3374 35.6626 36 35.25 36H33.75ZM27.3749 30C27.3749 29.5027 27.1774 29.0258 26.8258 28.6742C26.4742 28.3226 25.9973 28.1251 25.5 28.1251C25.0027 28.1251 24.5258 28.3226 24.1742 28.6742C23.8225 29.0258 23.625 29.5027 23.625 30C23.625 30.4973 23.8225 30.9742 24.1742 31.3258C24.5258 31.6774 25.0027 31.8749 25.5 31.8749C25.9973 31.8749 26.4742 31.6774 26.8258 31.3258C27.1774 30.9742 27.3749 30.4973 27.3749 30ZM34.5 31.8749C34.9973 31.8749 35.4742 31.6774 35.8258 31.3258C36.1774 30.9742 36.3749 30.4973 36.3749 30C36.3749 29.5027 36.1774 29.0258 35.8258 28.6742C35.4742 28.3226 34.9973 28.1251 34.5 28.1251C34.0027 28.1251 33.5258 28.3226 33.1742 28.6742C32.8226 29.0258 32.6251 29.5027 32.6251 30C32.6251 30.4973 32.8226 30.9742 33.1742 31.3258C33.5258 31.6774 34.0027 31.8749 34.5 31.8749ZM17.25 28.5H18V37.5H17.25C16.0078 37.5 15 36.4922 15 35.25V30.75C15 29.5078 16.0078 28.5 17.25 28.5ZM42.75 28.5C43.9922 28.5 45 29.5078 45 30.75V35.25C45 36.4922 43.9922 37.5 42.75 37.5H42V28.5H42.75Z" fill="url(#paint0_linear_79_1248)"/>
</g>
<defs>
<linearGradient id="paint0_linear_79_1248" x1="15" y1="18" x2="45.6102" y2="18.8053" gradientUnits="userSpaceOnUse">
<stop stop-color="#1F9CFF"/>
<stop offset="1" stop-color="#891CF7"/>
</linearGradient>
<clipPath id="clip0_79_1248">
<rect width="60" height="60" fill="white"/>
</clipPath>
</defs>
</svg>
