<svg width="87" height="86" viewBox="0 0 87 86" fill="none" xmlns="http://www.w3.org/2000/svg">
<g clip-path="url(#clip0_231_83)">
<path d="M86.5 43C86.5 19.2518 67.2482 0 43.5 0C19.7518 0 0.5 19.2518 0.5 43C0.5 66.7482 19.7518 86 43.5 86C67.2482 86 86.5 66.7482 86.5 43Z" fill="url(#paint0_linear_231_83)"/>
<path d="M24.5781 28.2216V41.1536C24.5781 42.6238 25.1577 44.0339 26.1957 45.0721L41.42 60.2962C43.5824 62.4589 47.0857 62.4589 49.2484 60.2962L60.7962 48.7484C62.9589 46.5857 62.9589 43.0824 60.7962 40.92L45.5721 25.6957C44.5339 24.6577 43.1239 24.0782 41.6536 24.0782H28.7302C26.4379 24.0695 24.5781 25.9293 24.5781 28.2216ZM34.2663 30.9896C35.0003 30.9896 35.7045 31.2812 36.2236 31.8003C36.7427 32.3194 37.0344 33.0235 37.0344 33.7576C37.0344 34.4917 36.7427 35.1959 36.2236 35.715C35.7045 36.234 35.0003 36.5258 34.2663 36.5258C33.5321 36.5258 32.8281 36.234 32.309 35.715C31.7899 35.1959 31.4982 34.4917 31.4982 33.7576C31.4982 33.0235 31.7899 32.3194 32.309 31.8003C32.8281 31.2812 33.5321 30.9896 34.2663 30.9896Z" fill="white"/>
</g>
<defs>
<linearGradient id="paint0_linear_231_83" x1="0.5" y1="0" x2="88.2712" y2="1.84737" gradientUnits="userSpaceOnUse">
<stop stop-color="#1F9CFF"/>
<stop offset="1" stop-color="#144EE3"/>
</linearGradient>
<clipPath id="clip0_231_83">
<rect width="86" height="86" fill="white" transform="translate(0.5)"/>
</clipPath>
</defs>
</svg>
