<svg width="87" height="86" viewBox="0 0 87 86" fill="none" xmlns="http://www.w3.org/2000/svg">
<g clip-path="url(#clip0_231_1421)">
<path d="M86.5 43C86.5 19.2518 67.2482 0 43.5 0C19.7518 0 0.5 19.2518 0.5 43C0.5 66.7482 19.7518 86 43.5 86C67.2482 86 86.5 66.7482 86.5 43Z" fill="url(#paint0_linear_231_1421)"/>
<mask id="mask0_231_1421" style="mask-type:luminance" maskUnits="userSpaceOnUse" x="24" y="25" width="39" height="36">
<path d="M62.4181 25.7969H24.5781V60.1969H62.4181V25.7969Z" fill="white"/>
</mask>
<g mask="url(#mask0_231_1421)">
<path d="M35.0877 25.7969C33.9248 25.7969 32.9854 26.7577 32.9854 27.9469C32.9854 29.1361 33.9248 30.0969 35.0877 30.0969H38.4183L25.194 43.6285C24.3728 44.4682 24.3728 45.8321 25.194 46.6722C26.0152 47.5119 27.3488 47.5119 28.17 46.6722L41.3942 33.1405V36.5469C41.3942 37.7361 42.3337 38.6969 43.4964 38.6969C44.6591 38.6969 45.5986 37.7361 45.5986 36.5469V27.9469C45.5986 26.7577 44.6591 25.7969 43.4964 25.7969H35.0877ZM62.4164 31.1719C62.4164 30.3166 62.0841 29.4962 61.4928 28.8915C60.9014 28.2866 60.0996 27.9469 59.2633 27.9469C58.4267 27.9469 57.6248 28.2866 57.0335 28.8915C56.4422 29.4962 56.1099 30.3166 56.1099 31.1719C56.1099 32.0272 56.4422 32.8475 57.0335 33.4523C57.6248 34.0571 58.4267 34.3969 59.2633 34.3969C60.0996 34.3969 60.9014 34.0571 61.4928 33.4523C62.0841 32.8475 62.4164 32.0272 62.4164 31.1719ZM54.0077 39.7719C54.0077 39.3484 53.9261 38.9291 53.7676 38.5376C53.609 38.1465 53.3768 37.7908 53.084 37.4915C52.7913 37.1919 52.4435 36.9545 52.061 36.7925C51.6784 36.6301 51.2684 36.5469 50.8542 36.5469C50.44 36.5469 50.03 36.6301 49.6475 36.7925C49.2649 36.9545 48.9175 37.1919 48.6244 37.4915C48.3317 37.7908 48.0995 38.1465 47.9409 38.5376C47.7826 38.9291 47.7008 39.3484 47.7008 39.7719C47.7008 40.1953 47.7826 40.6147 47.9409 41.0061C48.0995 41.3973 48.3317 41.753 48.6244 42.0523C48.9175 42.3519 49.2649 42.5892 49.6475 42.7513C50.03 42.9136 50.44 42.9969 50.8542 42.9969C51.2684 42.9969 51.6784 42.9136 52.061 42.7513C52.4435 42.5892 52.7913 42.3519 53.084 42.0523C53.3768 41.753 53.609 41.3973 53.7676 41.0061C53.9261 40.6147 54.0077 40.1953 54.0077 39.7719ZM50.8542 51.5969C51.6905 51.5969 52.4927 51.257 53.084 50.6523C53.6754 50.0475 54.0077 49.2271 54.0077 48.3719C54.0077 47.5167 53.6754 46.6963 53.084 46.0915C52.4927 45.4867 51.6905 45.1469 50.8542 45.1469C50.018 45.1469 49.2157 45.4867 48.6244 46.0915C48.0331 46.6963 47.7008 47.5167 47.7008 48.3719C47.7008 49.2271 48.0331 50.0475 48.6244 50.6523C49.2157 51.257 50.018 51.5969 50.8542 51.5969ZM54.0077 56.9719C54.0077 56.5484 53.9261 56.1291 53.7676 55.7376C53.609 55.3465 53.3768 54.9908 53.084 54.6915C52.7913 54.3919 52.4435 54.1545 52.061 53.9925C51.6784 53.8301 51.2684 53.7469 50.8542 53.7469C50.44 53.7469 50.03 53.8301 49.6475 53.9925C49.2649 54.1545 48.9175 54.3919 48.6244 54.6915C48.3317 54.9908 48.0995 55.3465 47.9409 55.7376C47.7826 56.1291 47.7008 56.5484 47.7008 56.9719C47.7008 57.3953 47.7826 57.8147 47.9409 58.2062C48.0995 58.5973 48.3317 58.953 48.6244 59.2523C48.9175 59.5519 49.2649 59.7892 49.6475 59.9513C50.03 60.1136 50.44 60.1969 50.8542 60.1969C51.2684 60.1969 51.6784 60.1136 52.061 59.9513C52.4435 59.7892 52.7913 59.5519 53.084 59.2523C53.3768 58.953 53.609 58.5973 53.7676 58.2062C53.9261 57.8147 54.0077 57.3953 54.0077 56.9719ZM62.4164 56.9719C62.4164 56.1167 62.0841 55.2963 61.4928 54.6915C60.9014 54.0867 60.0996 53.7469 59.2633 53.7469C58.4267 53.7469 57.6248 54.0867 57.0335 54.6915C56.4422 55.2963 56.1099 56.1167 56.1099 56.9719C56.1099 57.8271 56.4422 58.6475 57.0335 59.2523C57.6248 59.857 58.4267 60.1969 59.2633 60.1969C60.0996 60.1969 60.9014 59.857 61.4928 59.2523C62.0841 58.6475 62.4164 57.8271 62.4164 56.9719ZM42.4455 51.5969C43.2817 51.5969 44.0836 51.257 44.6749 50.6523C45.2666 50.0475 45.5986 49.2271 45.5986 48.3719C45.5986 47.5167 45.2666 46.6963 44.6749 46.0915C44.0836 45.4867 43.2817 45.1469 42.4455 45.1469C41.6092 45.1469 40.807 45.4867 40.2157 46.0915C39.6243 46.6963 39.292 47.5167 39.292 48.3719C39.292 49.2271 39.6243 50.0475 40.2157 50.6523C40.807 51.257 41.6092 51.5969 42.4455 51.5969ZM45.5986 56.9719C45.5986 56.1167 45.2666 55.2963 44.6749 54.6915C44.0836 54.0867 43.2817 53.7469 42.4455 53.7469C41.6092 53.7469 40.807 54.0867 40.2157 54.6915C39.6243 55.2963 39.292 56.1167 39.292 56.9719C39.292 57.8271 39.6243 58.6475 40.2157 59.2523C40.807 59.857 41.6092 60.1969 42.4455 60.1969C43.2817 60.1969 44.0836 59.857 44.6749 59.2523C45.2666 58.6475 45.5986 57.8271 45.5986 56.9719ZM34.0365 60.1969C34.8728 60.1969 35.6749 59.857 36.2662 59.2523C36.8575 58.6475 37.1899 57.8271 37.1899 56.9719C37.1899 56.1167 36.8575 55.2963 36.2662 54.6915C35.6749 54.0867 34.8728 53.7469 34.0365 53.7469C33.2002 53.7469 32.3981 54.0867 31.8067 54.6915C31.2154 55.2963 30.8832 56.1167 30.8832 56.9719C30.8832 57.8271 31.2154 58.6475 31.8067 59.2523C32.3981 59.857 33.2002 60.1969 34.0365 60.1969ZM62.4164 48.3719C62.4164 47.5167 62.0841 46.6963 61.4928 46.0915C60.9014 45.4867 60.0996 45.1469 59.2633 45.1469C58.4267 45.1469 57.6248 45.4867 57.0335 46.0915C56.4422 46.6963 56.1099 47.5167 56.1099 48.3719C56.1099 49.2271 56.4422 50.0475 57.0335 50.6523C57.6248 51.257 58.4267 51.5969 59.2633 51.5969C60.0996 51.5969 60.9014 51.257 61.4928 50.6523C62.0841 50.0475 62.4164 49.2271 62.4164 48.3719ZM59.2633 42.9969C60.0996 42.9969 60.9014 42.657 61.4928 42.0523C62.0841 41.4475 62.4164 40.6271 62.4164 39.7719C62.4164 38.9167 62.0841 38.0963 61.4928 37.4915C60.9014 36.8867 60.0996 36.5469 59.2633 36.5469C58.4267 36.5469 57.6248 36.8867 57.0335 37.4915C56.4422 38.0963 56.1099 38.9167 56.1099 39.7719C56.1099 40.6271 56.4422 41.4475 57.0335 42.0523C57.6248 42.657 58.4267 42.9969 59.2633 42.9969Z" fill="white"/>
</g>
</g>
<defs>
<linearGradient id="paint0_linear_231_1421" x1="0.5" y1="0" x2="88.2712" y2="1.84737" gradientUnits="userSpaceOnUse">
<stop stop-color="#1F9CFF"/>
<stop offset="1" stop-color="#144EE3"/>
</linearGradient>
<clipPath id="clip0_231_1421">
<rect width="86" height="86" fill="white" transform="translate(0.5)"/>
</clipPath>
</defs>
</svg>
