<svg width="87" height="86" viewBox="0 0 87 86" fill="none" xmlns="http://www.w3.org/2000/svg">
<g clip-path="url(#clip0_231_126)">
<path d="M86.5 43C86.5 19.2518 67.2482 0 43.5 0C19.7518 0 0.5 19.2518 0.5 43C0.5 66.7482 19.7518 86 43.5 86C67.2482 86 86.5 66.7482 86.5 43Z" fill="url(#paint0_linear_231_126)"/>
<path d="M50.5944 22.3594H62.2044C63.2766 22.3594 64.1394 23.2221 64.1394 24.2944V35.9044C64.1394 36.6863 63.6719 37.396 62.946 37.6942C62.2205 37.9925 61.3901 37.8315 60.8339 37.2749L57.6894 34.1306L50.6749 41.1449C49.917 41.9027 48.6917 41.9027 47.9418 41.1449L45.3618 38.5649C44.604 37.807 44.604 36.5817 45.3618 35.8318L52.3763 28.8174L49.2239 25.665C48.6673 25.1087 48.5063 24.2782 48.8045 23.5526C49.1028 22.827 49.8125 22.3594 50.5944 22.3594ZM36.4044 63.6394H24.7944C23.7221 63.6394 22.8594 62.7766 22.8594 61.7044V50.0944C22.8594 49.3125 23.327 48.6028 24.0526 48.3045C24.7782 48.0063 25.6087 48.1673 26.165 48.7239L29.3094 51.868L36.3239 44.8539C37.0817 44.096 38.307 44.096 39.057 44.8539L41.637 47.4339C42.3948 48.1917 42.3948 49.417 41.637 50.167L34.6226 57.1815L37.767 60.3256C38.3232 60.8819 38.4845 61.7123 38.1863 62.4381C37.888 63.1636 37.1784 63.6315 36.3965 63.6315L36.4044 63.6394Z" fill="white"/>
</g>
<defs>
<linearGradient id="paint0_linear_231_126" x1="0.5" y1="0" x2="88.2713" y2="1.84737" gradientUnits="userSpaceOnUse">
<stop stop-color="#1F9CFF"/>
<stop offset="1" stop-color="#891CF7"/>
</linearGradient>
<clipPath id="clip0_231_126">
<rect width="86" height="86" fill="white" transform="translate(0.5)"/>
</clipPath>
</defs>
</svg>
