<svg width="44" height="45" viewBox="0 0 44 45" fill="none" xmlns="http://www.w3.org/2000/svg">
<path d="M21.6794 7.34375C19.8432 7.34375 18.0822 8.07317 16.7838 9.37153C15.4855 10.67 14.7561 12.4308 14.7561 14.2671C14.7561 16.1033 15.4855 17.8641 16.7838 19.1625C18.0822 20.4609 19.8432 21.1903 21.6794 21.1903C23.5155 21.1903 25.2765 20.4609 26.5749 19.1625C27.8733 17.8641 28.6027 16.1033 28.6027 14.2671C28.6027 12.4308 27.8733 10.67 26.5749 9.37153C25.2765 8.07317 23.5155 7.34375 21.6794 7.34375ZM21.6794 25.1465C15.7748 25.1465 6.84375 28.6971 6.84375 34.0479V38.9931H36.515V34.0479C36.515 28.6971 27.584 25.1465 21.6794 25.1465Z" fill="url(#paint0_linear_77_474)"/>
<defs>
<linearGradient id="paint0_linear_77_474" x1="6.84375" y1="7.34375" x2="37.1277" y2="7.94131" gradientUnits="userSpaceOnUse">
<stop stop-color="#1F9CFF"/>
<stop offset="1" stop-color="#144EE3"/>
</linearGradient>
</defs>
</svg>
