<svg width="48" height="49" viewBox="0 0 48 49" fill="none" xmlns="http://www.w3.org/2000/svg">
<path d="M26.6081 39.9726H20.8065C19.7415 39.9726 18.8728 39.1039 18.8728 38.0387V18.7004C18.8728 17.6353 19.7415 16.7666 20.8065 16.7666H26.6081C27.6732 16.7666 28.5419 17.6353 28.5419 18.7004V38.0387C28.5419 39.1039 27.6732 39.9726 26.6081 39.9726ZM40.1449 39.9726H34.3434C33.2783 39.9726 32.4096 39.1039 32.4096 38.0387V10.9651C32.4096 9.89996 33.2783 9.03125 34.3434 9.03125H40.1449C41.2101 9.03125 42.0787 9.89996 42.0787 10.9651V38.0387C42.0787 39.1039 41.2101 39.9726 40.1449 39.9726ZM13.0713 39.9726H7.26977C6.20465 39.9726 5.33594 39.1039 5.33594 38.0387V26.4357C5.33594 25.3707 6.20465 24.5019 7.26977 24.5019H13.0713C14.1364 24.5019 15.0051 25.3707 15.0051 26.4357V38.0387C15.0051 39.1039 14.1364 39.9726 13.0713 39.9726Z" fill="url(#paint0_linear_77_496)"/>
<defs>
<linearGradient id="paint0_linear_77_496" x1="5.33594" y1="9.03125" x2="42.8287" y2="9.96834" gradientUnits="userSpaceOnUse">
<stop stop-color="#1F9CFF"/>
<stop offset="1" stop-color="#144EE3"/>
</linearGradient>
</defs>
</svg>
