<svg width="43" height="43" viewBox="0 0 43 43" fill="none" xmlns="http://www.w3.org/2000/svg">
<path fill-rule="evenodd" clip-rule="evenodd" d="M3.82031 22.169C3.82031 12.5148 11.5539 4.78125 21.2081 4.78125C30.8623 4.78125 38.5958 12.5148 38.5958 22.169C38.5958 31.8233 30.8623 39.5568 21.2081 39.5568C11.5539 39.5568 3.82031 31.8233 3.82031 22.169ZM21.2081 8.2588C13.4745 8.2588 7.29787 14.4354 7.29787 22.169C7.29787 29.9026 13.4745 36.0792 21.2081 36.0792C28.9417 36.0792 35.1183 29.9026 35.1183 22.169C35.1183 14.4354 28.9417 8.2588 21.2081 8.2588Z" fill="url(#paint0_linear_77_485)"/>
<path d="M21.2115 6.51562C12.5176 6.51562 5.5625 13.4707 5.5625 22.1646C5.5625 30.8586 12.5176 37.8137 21.2115 37.8137C29.9054 37.8137 36.8606 30.8586 36.8606 22.1646C36.8606 13.4707 29.9054 6.51562 21.2115 6.51562ZM19.4727 18.6871C19.4727 19.0335 19.6493 19.21 19.8192 19.3798C19.9958 19.733 20.1656 19.9028 20.5187 20.0794C20.6885 20.2492 21.0349 20.4259 21.5579 20.6025C22.2575 20.9489 22.9502 21.2953 23.4733 21.6416C24.1661 21.988 24.6891 22.3412 25.0355 22.8574C25.5584 23.3804 25.9048 23.9034 26.0814 24.4264C26.2512 24.9494 26.4279 25.6422 26.4279 26.5115C26.4279 27.381 26.2512 28.0738 26.0814 28.5968C25.9048 29.2963 25.5584 29.6427 25.212 30.1658C24.8657 30.5122 24.3427 30.8586 23.8197 31.2049C23.4733 31.3815 23.2967 31.5513 22.9502 31.5513V34.3361H19.4727V31.3815C19.1263 31.2049 18.7799 31.2049 18.4267 31.0351C17.734 30.8586 17.3876 30.5122 16.8646 29.9891C16.5182 29.6427 16.1717 28.9431 15.8186 28.2504C15.6488 27.381 15.4722 26.5115 15.4722 25.4656H18.9497C18.9497 25.9886 18.9497 26.5115 19.1263 27.0346C19.2961 27.5576 19.4727 27.904 19.6493 28.0738C19.8192 28.2504 19.9958 28.427 20.3422 28.5968C20.6885 28.7733 20.8651 28.7733 21.2115 28.7733C21.5579 28.7733 21.7345 28.7733 22.0809 28.5968C22.4273 28.427 22.6039 28.2504 22.7737 28.0738C22.9502 27.904 22.9502 27.7274 23.1269 27.381C23.2967 27.2044 23.2967 26.8579 23.2967 26.5115C23.2967 26.1652 23.1269 25.8188 23.1269 25.6422C23.1269 25.4656 22.9502 25.1192 22.7737 24.9494C22.6039 24.5962 22.4273 24.4264 22.0809 24.2498C21.7345 24.08 21.3881 23.9034 21.0349 23.7269C20.3422 23.3804 19.6494 23.034 19.1263 22.6876C18.4267 22.3412 17.9106 21.988 17.5574 21.4718C17.0412 21.1187 16.688 20.6025 16.5182 19.9028C16.3415 19.3799 16.1717 18.6871 16.1717 17.8177C16.1717 17.1249 16.1717 16.4253 16.3415 15.9023C16.688 15.3861 16.8646 14.8631 17.3876 14.3402C17.734 13.8172 18.0804 13.4707 18.4267 13.2941C18.7799 13.1243 18.9497 12.9477 19.2961 12.9477V9.99314H22.7737V12.7779C23.1269 12.9477 23.4733 13.1243 23.8197 13.2941C24.3427 13.6474 24.8657 13.9938 25.212 14.5167C25.5584 15.0329 25.9048 15.5559 26.0814 16.2555C26.2512 16.9482 26.4279 17.6411 26.4279 18.5105H23.1269C23.1269 17.4713 22.9502 16.7717 22.6039 16.2555C22.2575 15.7325 21.9043 15.5559 21.2115 15.5559C20.8651 15.5559 20.5187 15.5559 20.3422 15.7325C20.1656 15.9023 19.9958 16.0789 19.8192 16.2555C19.6493 16.4253 19.6494 16.7717 19.4727 16.9482C19.2961 17.1249 19.2961 17.4713 19.2961 17.8177C19.2961 18.1641 19.4727 18.3407 19.4727 18.6871Z" fill="url(#paint1_linear_77_485)"/>
<defs>
<linearGradient id="paint0_linear_77_485" x1="3.82031" y1="4.78125" x2="39.3121" y2="5.52826" gradientUnits="userSpaceOnUse">
<stop stop-color="#1F9CFF"/>
<stop offset="1" stop-color="#144EE3"/>
</linearGradient>
<linearGradient id="paint1_linear_77_485" x1="5.5625" y1="6.51563" x2="37.5052" y2="7.18794" gradientUnits="userSpaceOnUse">
<stop stop-color="#1F9CFF"/>
<stop offset="1" stop-color="#144EE3"/>
</linearGradient>
</defs>
</svg>
